<svg xmlns="http://www.w3.org/2000/svg" viewBox="0 0 1200 630" width="1200" height="630">
  <defs>
    <linearGradient id="bg" x1="0" y1="0" x2="1" y2="1">
      <stop offset="0" stop-color="#141109"/>
      <stop offset="1" stop-color="#1A1610"/>
    </linearGradient>
    <linearGradient id="gold" x1="0" y1="0" x2="1" y2="1">
      <stop offset="0" stop-color="#F2A65A"/>
      <stop offset="1" stop-color="#E8842C"/>
    </linearGradient>
    <radialGradient id="glow" cx="20%" cy="10%" r="60%">
      <stop offset="0" stop-color="#E8842C" stop-opacity="0.35"/>
      <stop offset="1" stop-color="#E8842C" stop-opacity="0"/>
    </radialGradient>
    <radialGradient id="glow2" cx="90%" cy="90%" r="55%">
      <stop offset="0" stop-color="#9DB89C" stop-opacity="0.28"/>
      <stop offset="1" stop-color="#9DB89C" stop-opacity="0"/>
    </radialGradient>
  </defs>

  <rect width="1200" height="630" fill="url(#bg)"/>
  <rect width="1200" height="630" fill="url(#glow)"/>
  <rect width="1200" height="630" fill="url(#glow2)"/>

  <!-- mark -->
  <g transform="translate(96,96)">
    <polygon points="36,4 64,20 64,52 36,68 8,52 8,20" fill="url(#gold)"/>
    <polygon points="36,16 53,26 53,46 36,56 19,46 19,26" fill="#141109"/>
    <polygon points="36,24 46,30 46,42 36,48 26,42 26,30" fill="url(#gold)"/>
    <text x="86" y="48" font-family="Fraunces, Arial, sans-serif" font-size="40" font-weight="700" fill="#F4EFE6">Kudbee<tspan fill="#E8842C">Quant</tspan></text>
  </g>

  <!-- headline -->
  <text x="96" y="300" font-family="Fraunces, Arial, sans-serif" font-size="76" font-weight="700" fill="#F4EFE6">Turn market noise into</text>
  <text x="96" y="386" font-family="Fraunces, Arial, sans-serif" font-size="76" font-weight="700" fill="url(#gold)">precision signals.</text>

  <text x="96" y="452" font-family="Inter, Arial, sans-serif" font-size="30" fill="#B7AC99">Real-time signals · Institutional analytics · No-code strategy backtesting</text>

  <!-- mini chart -->
  <g transform="translate(96,500)">
    <polyline points="0,60 60,40 120,48 180,20 240,30 300,8 360,18 420,0"
      fill="none" stroke="#9DB89C" stroke-width="4" stroke-linejoin="round" stroke-linecap="round"/>
  </g>

  <!-- pill -->
  <g transform="translate(820,540)">
    <rect width="284" height="56" rx="28" fill="#E8842C"/>
    <text x="142" y="36" text-anchor="middle" font-family="Fraunces, Arial, sans-serif" font-size="24" font-weight="600" fill="#16120a">Join the waitlist →</text>
  </g>
</svg>
